<svg height="512" viewBox="0 0 512 512" width="512" xmlns="http://www.w3.org/2000/svg" xmlns:xlink="http://www.w3.org/1999/xlink"><linearGradient id="a" gradientUnits="userSpaceOnUse" x1="17.519" x2="518.208" y1="494.481" y2="-6.208" data-name="New Gradient Swatch 1"><stop offset="0" stop-color="#003f8a"/><stop offset=".518" stop-color="#00d7df"/><stop offset="1" stop-color="#006df0"/></linearGradient><path d="m431.36 80.64a248 248 0 1 0 -350.72 350.72 248 248 0 1 0 350.72-350.72zm-339.41 11.31a230.815 230.815 0 0 1 100.9-59.29c-14.73 12.28-28.24 28.97-39.98 49.69a277.172 277.172 0 0 0 -19.24 42.24 252.979 252.979 0 0 1 -50.33-23.5q4.185-4.665 8.65-9.14zm-19.04 21.51a267.325 267.325 0 0 0 55.68 26.28c-10.13 33.07-15.81 69.93-16.51 108.26h-87.93a230.01 230.01 0 0 1 48.76-134.54zm0 285.08a230.01 230.01 0 0 1 -48.76-134.54h87.93c.7 38.33 6.38 75.19 16.51 108.26a267.325 267.325 0 0 0 -55.68 26.28zm19.04 21.51q-4.47-4.47-8.65-9.14a252.979 252.979 0 0 1 50.33-23.5 277.172 277.172 0 0 0 19.24 42.24c11.74 20.72 25.25 37.41 39.98 49.69a230.815 230.815 0 0 1 -100.9-59.29zm156.05 67.48c-30.36-3.45-58.95-26.49-81.21-65.77a260.011 260.011 0 0 1 -17.9-39.19c30.36-8.8 64.1-13.82 99.11-14.49zm0-135.45c-36.71.68-72.19 5.99-104.18 15.34-9.63-31.5-15.05-66.71-15.74-103.42h119.92zm0-104.08h-119.92c.69-36.71 6.11-71.92 15.74-103.42 31.99 9.35 67.47 14.66 104.18 15.34zm0-104.08c-35.01-.67-68.75-5.69-99.11-14.49a260.011 260.011 0 0 1 17.9-39.19c22.26-39.28 50.85-62.32 81.21-65.77zm191.09-30.46a230.01 230.01 0 0 1 48.76 134.54h-87.93c-.7-38.33-6.38-75.19-16.51-108.26a267.325 267.325 0 0 0 55.68-26.28zm-19.04-21.51q4.47 4.47 8.65 9.14a252.979 252.979 0 0 1 -50.33 23.5 277.172 277.172 0 0 0 -19.24-42.24c-11.74-20.72-25.25-37.41-39.98-49.69a230.815 230.815 0 0 1 100.9 59.29zm-156.05-67.48c30.36 3.45 58.95 26.49 81.21 65.77a260.011 260.011 0 0 1 17.9 39.19c-30.36 8.8-64.1 13.82-99.11 14.49zm0 135.45c36.71-.68 72.19-5.99 104.18-15.34 9.63 31.5 15.05 66.71 15.74 103.42h-119.92zm0 104.08h119.92c-.69 36.71-6.11 71.92-15.74 103.42-31.99-9.35-67.47-14.66-104.18-15.34zm0 223.53v-119.45c35.01.67 68.75 5.69 99.11 14.49a260.011 260.011 0 0 1 -17.9 39.19c-22.26 39.28-50.85 62.32-81.21 65.77zm156.05-67.48a230.815 230.815 0 0 1 -100.9 59.29c14.73-12.28 28.24-28.97 39.98-49.69a277.172 277.172 0 0 0 19.24-42.24 252.979 252.979 0 0 1 50.33 23.5q-4.185 4.665-8.65 9.14zm19.04-21.51a267.325 267.325 0 0 0 -55.68-26.28c10.13-33.07 15.81-69.93 16.51-108.26h87.93a230.01 230.01 0 0 1 -48.76 134.54z" fill="url(#a)"/></svg>